<?xml version="1.0" standalone="no"?>
<!DOCTYPE svg PUBLIC "-//W3C//DTD SVG 20010904//EN"
 "http://www.w3.org/TR/2001/REC-SVG-20010904/DTD/svg10.dtd">
<svg version="1.0" xmlns="http://www.w3.org/2000/svg"
 width="300.000000pt" height="250.000000pt" viewBox="0 0 300.000000 250.000000"
 preserveAspectRatio="xMidYMid meet">
<metadata>
Created by potrace 1.10, written by Peter Selinger 2001-2011
</metadata>
<g transform="translate(0.000000,250.000000) scale(0.100000,-0.100000)"
fill="#000000" stroke="none">
<path d="M1633 2047 c-51 -28 -97 -112 -114 -205 -8 -41 -19 -66 -42 -89 -42
-45 -25 -41 32 6 73 61 105 74 175 69 182 -12 383 -226 394 -420 6 -90 -10
-130 -74 -191 -72 -68 -87 -76 -74 -42 28 73 -3 220 -64 312 -93 137 -211 212
-349 223 -76 6 -84 5 -114 -18 -18 -13 -41 -38 -51 -56 -11 -18 -59 -66 -108
-107 -205 -170 -322 -279 -333 -310 -18 -51 -13 -152 9 -213 45 -119 135 -218
254 -278 76 -38 173 -43 227 -12 19 11 119 91 222 177 103 86 194 157 201 157
7 0 33 17 57 38 24 20 67 55 94 77 99 78 110 95 122 180 3 22 14 52 24 67 11
15 19 43 19 66 0 23 4 44 10 47 18 11 95 -18 117 -45 32 -39 119 -79 189 -86
57 -6 63 -5 95 23 36 31 45 31 144 3 57 -16 96 -13 122 12 31 29 63 118 63
174 0 86 -33 120 -149 151 -53 14 -90 29 -96 40 -21 37 -66 71 -102 77 -106
17 -150 16 -177 -5 -23 -18 -30 -19 -62 -9 -19 7 -45 13 -57 15 -12 2 -33 7
-46 11 -15 5 -22 3 -18 -3 4 -6 35 -16 69 -23 35 -7 66 -15 70 -17 3 -2 -5
-23 -18 -47 -39 -70 -57 -143 -51 -211 l4 -61 -46 10 -47 9 0 51 c0 34 -9 71
-27 110 -19 40 -27 75 -27 112 0 30 -4 54 -10 54 -5 0 -10 -21 -10 -46 l0 -46
-36 32 c-32 28 -73 50 -92 50 -4 0 13 -13 38 -29 82 -51 135 -125 145 -202 l6
-44 -29 61 c-34 72 -126 168 -186 195 -37 17 -36 24 4 20 12 -2 12 0 2 7 -18
12 40 24 76 16 21 -4 24 -3 12 5 -21 15 -65 13 -107 -4 -19 -8 -64 -15 -100
-15 -63 0 -64 0 -52 23 6 12 21 32 32 44 11 13 18 25 16 27 -10 10 -29 -12
-56 -64 -16 -31 -36 -56 -46 -58 -15 -3 -18 1 -12 20 5 20 4 21 -7 8 -7 -9
-26 -17 -42 -18 -16 -1 -49 -13 -74 -27 l-45 -25 6 44 c4 25 14 63 24 85 18
43 41 51 88 32 19 -8 45 3 45 19 0 4 -18 10 -40 14 -48 7 -50 16 -11 39 30 17
91 21 125 8 17 -7 14 -11 -25 -34 -51 -31 -42 -37 12 -8 l36 19 49 -24 c27
-13 60 -33 74 -44 14 -11 39 -22 57 -25 18 -3 44 -10 58 -15 32 -12 35 -12 35
-2 0 4 -28 14 -62 22 -37 8 -70 22 -83 35 -11 12 -35 27 -53 33 -19 6 -47 23
-64 37 -24 20 -40 25 -86 25 -31 -1 -67 -6 -79 -13z m22 -67 c25 -11 -1 -11
-35 0 -20 6 -21 8 -5 8 11 0 29 -3 40 -8z m746 -114 c-10 -12 -5 -16 33 -21
25 -4 46 -11 46 -16 0 -9 -34 -4 -77 12 -18 7 -26 3 -41 -19 -60 -83 -88 -253
-56 -335 13 -35 -18 -16 -33 20 -38 92 9 280 86 344 37 30 62 39 42 15z m129
-5 l25 -7 -25 -7 c-30 -8 -100 2 -100 14 0 10 64 10 100 0z m-613 -35 c152
-79 251 -273 199 -391 l-13 -30 -8 40 c-17 88 -62 174 -131 252 -43 48 -133
112 -176 125 -41 12 -48 24 -20 32 33 9 102 -4 149 -28z m673 9 c7 -8 9 -15 5
-15 -5 0 -1 -8 8 -18 16 -18 16 -18 -11 -14 -65 9 -122 -85 -122 -202 0 -66
26 -126 55 -126 8 0 15 -5 15 -11 0 -5 6 -7 13 -4 6 4 1 -3 -12 -14 -24 -21
-85 -29 -95 -12 -3 5 -14 7 -24 5 -9 -2 -30 0 -47 5 -28 10 -27 10 15 8 39 -2
45 1 48 19 3 22 3 22 27 -2 13 -13 34 -24 47 -24 20 1 19 3 -9 15 -43 18 -57
48 -57 125 0 114 49 216 119 246 25 11 26 13 8 14 -12 0 -36 -12 -53 -27 l-32
-26 4 23 c2 16 14 27 38 36 46 16 46 16 60 -1z m-159 -17 c34 -10 39 -15 39
-40 0 -16 -7 -45 -16 -66 -17 -40 -25 -98 -27 -202 l-2 -65 -35 3 c-67 7 -80
29 -80 129 0 37 3 44 16 39 9 -3 28 -9 42 -12 15 -4 33 -14 40 -22 10 -14 12
-13 11 9 -1 13 2 32 6 42 5 13 3 16 -8 11 -8 -3 -33 0 -56 6 -30 8 -41 16 -41
30 0 35 52 150 67 150 3 0 23 -5 44 -12z m197 -47 l24 -6 -21 -19 c-12 -11
-21 -24 -21 -29 0 -6 15 2 32 19 32 28 32 28 9 2 -14 -16 -22 -31 -18 -34 3
-4 16 6 29 21 20 23 27 25 50 16 16 -6 36 -8 45 -4 10 3 6 -4 -9 -16 -16 -12
-28 -27 -28 -33 0 -5 14 2 31 16 17 14 36 26 42 26 7 0 0 -10 -15 -21 -16 -11
-28 -26 -28 -32 0 -6 9 -1 20 11 28 29 56 28 77 -4 22 -34 21 -117 -1 -139 -9
-9 -16 -20 -16 -24 0 -5 -11 -20 -25 -35 -21 -23 -28 -26 -40 -16 -19 16 -19
63 0 100 16 32 34 37 66 20 17 -10 19 -7 19 28 0 62 -38 82 -77 40 -44 -49
-57 -149 -25 -188 16 -20 21 -21 41 -11 12 7 31 27 41 44 11 18 20 27 20 21 0
-6 -14 -30 -30 -52 -40 -56 -71 -57 -94 -4 -12 25 -15 29 -13 12 3 -14 8 -34
12 -45 6 -17 4 -17 -14 4 -18 20 -24 44 -24 96 0 6 3 33 6 60 5 37 4 45 -4 32
-6 -9 -13 -50 -16 -90 -6 -61 -8 -68 -15 -42 -7 28 1 94 17 138 4 9 3 17 -3
17 -12 0 -36 -112 -30 -145 3 -14 2 -25 -3 -25 -17 0 -13 113 6 163 4 9 3 17
-2 17 -14 0 -36 -115 -28 -151 5 -26 4 -31 -5 -23 -13 13 -10 126 4 157 5 9 4
17 -1 17 -15 0 -37 -104 -30 -142 6 -27 5 -30 -4 -14 -11 19 -7 112 7 152 5
15 4 16 -6 7 -21 -19 -25 -136 -7 -173 l16 -32 -27 7 c-69 17 -92 68 -76 173
8 56 18 78 52 115 26 27 46 31 90 18z m-1038 -87 c161 -48 303 -213 333 -387
11 -69 -2 -145 -29 -168 -9 -7 -8 0 4 22 12 24 17 56 16 106 0 64 -5 82 -41
155 -80 161 -228 272 -363 273 -50 0 -74 -5 -103 -23 -21 -12 -35 -17 -31 -11
11 19 87 49 125 49 19 0 60 -7 89 -16z m48 -49 c141 -71 251 -227 260 -369 7
-107 -6 -126 -157 -248 -69 -56 -153 -125 -186 -153 -78 -67 -91 -75 -75 -45
8 15 11 51 8 101 -6 104 -48 189 -138 280 -80 80 -157 120 -247 128 l-65 6 43
35 c24 19 106 88 183 154 76 65 150 125 165 132 49 26 131 18 209 -21z m735
-1 c15 -3 27 -10 27 -16 0 -5 -8 -7 -17 -4 -10 3 -30 8 -45 12 -16 3 -28 10
-28 16 0 5 8 7 18 4 9 -3 29 -8 45 -12z m-1203 -335 c82 -20 203 -126 255
-223 16 -30 27 -57 25 -60 -3 -2 -23 -2 -45 1 -36 5 -44 12 -79 66 -82 125
-234 175 -300 96 l-25 -30 -41 21 c-22 11 -40 23 -40 26 0 18 34 66 61 85 54
38 96 42 189 18z m28 -123 c95 -48 161 -149 162 -244 0 -46 -4 -58 -29 -83
-22 -22 -39 -29 -68 -29 -84 1 -184 78 -229 178 -68 149 24 249 164 178z
m-205 -67 c-13 -65 50 -192 123 -248 24 -18 66 -40 94 -48 27 -8 50 -20 50
-28 0 -7 3 -26 6 -44 l6 -31 -48 17 c-82 28 -111 49 -109 80 2 19 1 21 -2 6
-2 -13 -8 -23 -12 -23 -25 0 -161 181 -161 214 0 3 15 3 33 1 l32 -5 -35 12
c-19 6 -38 16 -42 22 -11 16 -20 103 -14 124 7 20 7 20 46 -1 33 -18 38 -26
33 -48z m452 -109 c8 0 18 -21 24 -50 13 -61 0 -136 -31 -176 -38 -48 -158
-86 -158 -50 0 7 -3 27 -6 42 -5 27 -2 31 35 47 23 10 46 27 51 38 11 19 11
19 51 -2 23 -11 44 -18 47 -15 3 4 -13 14 -36 23 -42 16 -42 16 -42 69 0 29
-3 60 -7 70 -5 15 -2 16 27 11 18 -4 38 -7 45 -7z"/>
<path d="M2699 1708 c-12 -23 -12 -23 10 -4 23 21 26 26 11 26 -5 0 -15 -10
-21 -22z"/>
<path d="M2716 1615 c-3 -9 -6 -26 -5 -38 1 -16 4 -12 10 12 10 34 6 55 -5 26z"/>
<path d="M1115 1273 c21 -5 49 -26 30 -23 -22 5 -45 -1 -45 -10 0 -5 7 -7 15
-3 9 3 36 -2 61 -12 48 -18 96 -13 61 6 -9 6 -15 15 -11 21 4 6 -1 6 -14 -1
-27 -14 -45 -11 -54 12 -5 11 -17 17 -35 16 -21 -1 -23 -3 -8 -6z"/>
<path d="M1089 1158 c-79 -26 -50 -164 53 -252 70 -60 150 -68 177 -17 56 105
-117 307 -230 269z m106 -33 c47 -27 85 -73 109 -129 20 -48 20 -76 0 -104
-41 -59 -170 5 -225 110 -25 48 -26 123 -1 137 29 17 73 12 117 -14z"/>
<path d="M937 1090 c8 -29 17 -32 32 -8 11 18 11 20 -3 15 -9 -4 -16 -2 -16 3
0 6 -4 10 -9 10 -5 0 -7 -9 -4 -20z"/>
<path d="M1167 793 c-3 -5 -2 -15 3 -22 10 -17 43 -6 38 12 -6 15 -34 22 -41
10z"/>
<path d="M1412 939 c-16 -26 -15 -34 3 -19 12 10 15 9 15 -4 0 -10 4 -15 9
-12 10 6 3 43 -8 51 -4 2 -12 -5 -19 -16z"/>
<path d="M1737 1968 c-34 -46 -50 -78 -38 -78 5 0 13 9 16 21 4 11 20 36 37
55 17 19 25 34 20 34 -6 0 -22 -15 -35 -32z"/>
<path d="M2100 1896 c42 -17 60 -19 60 -7 0 6 -8 9 -17 9 -10 0 -31 2 -48 6
-27 6 -27 5 5 -8z"/>
</g>
</svg>
