<?xml version="1.0" standalone="no"?>
<!DOCTYPE svg PUBLIC "-//W3C//DTD SVG 20010904//EN"
 "http://www.w3.org/TR/2001/REC-SVG-20010904/DTD/svg10.dtd">
<svg version="1.0" xmlns="http://www.w3.org/2000/svg"
 width="300.000000pt" height="250.000000pt" viewBox="0 0 300.000000 250.000000"
 preserveAspectRatio="xMidYMid meet">
<metadata>
Created by potrace 1.10, written by Peter Selinger 2001-2011
</metadata>
<g transform="translate(0.000000,250.000000) scale(0.100000,-0.100000)"
fill="#000000" stroke="none">
<path d="M1611 2024 c-48 -43 -76 -98 -92 -182 -11 -58 -16 -67 -62 -105 -28
-23 -61 -53 -73 -67 -74 -80 -140 -143 -214 -207 -180 -152 -241 -207 -251
-225 -6 -10 -13 -50 -16 -87 -13 -159 92 -328 260 -417 58 -30 79 -36 135 -37
85 -1 103 9 239 126 60 50 129 108 153 128 25 20 56 47 70 59 14 12 39 29 57
36 17 7 37 19 45 26 7 8 47 41 88 75 114 92 128 111 141 178 7 33 20 72 31 87
10 15 18 43 18 66 0 23 4 44 10 47 17 11 94 -18 115 -42 38 -45 113 -79 191
-88 57 -7 63 -6 95 22 30 26 38 28 74 21 22 -4 49 -10 61 -11 11 -2 27 -8 35
-12 23 -15 72 -6 96 17 50 47 80 192 50 245 -19 33 -58 60 -107 73 -25 6 -62
16 -82 21 -26 7 -43 19 -53 39 -24 46 -78 68 -186 75 -46 4 -62 1 -83 -16 -23
-18 -31 -19 -58 -10 -38 13 -38 13 -38 1 0 -5 11 -10 23 -10 35 0 37 -8 16
-44 -40 -67 -59 -143 -54 -217 4 -64 2 -70 -13 -64 -9 4 -31 9 -47 12 -30 5
-31 7 -31 56 0 36 -9 71 -28 112 -21 45 -28 73 -27 113 1 31 -2 52 -8 52 -6 0
-11 -21 -11 -46 l0 -46 -36 32 c-32 28 -73 50 -92 50 -4 0 13 -13 38 -29 87
-54 138 -130 146 -214 l4 -52 -13 40 c-8 22 -21 55 -31 73 -25 48 -122 141
-170 163 -37 17 -36 24 4 20 12 -2 12 0 2 7 -18 12 40 24 74 16 13 -3 24 -2
24 3 0 15 -66 14 -112 -2 -36 -13 -168 -26 -168 -17 0 10 31 61 44 71 9 8 16
18 16 24 0 20 -42 -28 -61 -71 -19 -40 -43 -62 -55 -49 -9 9 35 100 63 130 18
18 22 27 12 27 -12 0 -12 2 1 10 8 5 12 11 10 13 -3 2 -23 -7 -45 -21 -38 -22
-35 -24 9 -6 14 5 11 -2 -12 -35 -17 -24 -36 -58 -42 -77 -8 -24 -17 -34 -26
-30 -8 3 -14 1 -14 -4 0 -5 -6 -7 -13 -4 -7 2 -34 -7 -61 -20 l-49 -25 6 44
c4 23 14 61 23 84 13 34 21 41 43 40 14 0 35 -4 46 -8 11 -5 25 -4 33 1 13 11
17 29 5 26 -5 -1 -23 2 -41 6 -36 9 -38 26 -4 41 12 5 22 13 22 17 0 14 -9 9
-49 -28z m56 -50 c-7 -7 -76 9 -72 16 3 5 21 3 40 -3 19 -6 34 -12 32 -13z
m734 -108 c-10 -12 -5 -16 33 -21 25 -4 46 -11 46 -16 0 -9 -34 -4 -77 12 -38
14 -75 -52 -99 -176 -17 -86 -17 -119 0 -168 18 -48 -1 -46 -26 4 -25 48 -23
149 3 228 22 64 90 151 119 151 10 0 10 -3 1 -14z m129 -5 l25 -7 -25 -7 c-30
-8 -100 2 -100 14 0 10 64 10 100 0z m-614 -33 c64 -29 145 -113 180 -184 34
-69 43 -153 21 -204 l-14 -35 -8 40 c-14 78 -80 196 -144 261 -59 59 -161 124
-195 124 -24 0 -19 18 7 23 39 9 105 -2 153 -25z m673 8 c9 -11 7 -12 -12 -9
-16 3 -34 -5 -56 -23 -33 -27 -33 -27 -29 -4 2 16 14 27 38 36 46 16 46 16 59
0z m-784 -40 c86 -42 192 -151 235 -241 43 -89 53 -203 25 -265 -15 -33 -121
-140 -139 -140 -3 0 -1 12 4 26 16 42 11 131 -11 196 -41 124 -145 245 -259
301 -56 28 -75 32 -142 32 -54 0 -74 3 -65 10 8 6 35 28 61 50 67 56 91 66
166 62 48 -2 82 -10 125 -31z m646 18 c25 -6 26 -8 18 -50 -5 -24 -14 -54 -21
-67 -6 -12 -13 -33 -13 -47 -5 -82 -6 -86 -14 -65 -5 11 -5 28 0 37 12 23 11
28 -5 22 -8 -3 -32 0 -55 6 -47 12 -50 25 -24 92 27 70 44 90 67 83 12 -3 33
-8 47 -11z m150 -4 c28 -15 23 -27 -9 -22 -65 9 -122 -85 -122 -200 0 -71 21
-116 61 -130 34 -12 29 -25 -17 -44 -28 -12 -39 -12 -57 -2 -12 6 -31 11 -43
10 -25 -3 -79 16 -71 25 4 3 0 11 -8 17 -15 12 -33 97 -27 134 4 23 19 23 79
1 25 -9 46 -71 41 -122 -3 -30 -5 -32 -38 -30 l-35 2 30 -9 c38 -12 55 -6 55
19 0 19 2 18 25 -4 25 -26 59 -33 70 -15 3 6 -1 7 -10 4 -8 -4 -26 1 -40 10
-49 32 -55 143 -14 250 10 27 15 54 12 60 -3 6 -3 8 2 4 4 -4 23 6 42 22 37
33 45 35 74 20z m27 -39 l24 -6 -21 -19 c-12 -11 -21 -24 -21 -30 0 -6 6 -4
13 4 7 8 21 22 32 30 15 11 14 7 -4 -13 -14 -15 -22 -30 -18 -33 4 -4 15 4 26
17 18 23 88 39 75 17 -4 -6 2 -7 17 -3 23 7 23 6 -3 -14 -16 -13 -28 -27 -28
-33 0 -5 14 2 31 16 17 14 36 26 42 26 7 0 0 -10 -15 -21 -16 -11 -28 -26 -28
-32 0 -6 10 -1 23 11 57 53 97 0 88 -118 -2 -30 -4 -32 -12 -15 -8 16 -9 15
-5 -10 11 -81 -100 -162 -139 -101 -17 26 -22 89 -11 156 5 35 4 41 -4 27 -6
-9 -14 -50 -17 -90 -6 -61 -8 -68 -15 -42 -7 28 1 94 17 138 4 9 3 17 -3 17
-12 0 -36 -112 -30 -145 3 -14 2 -25 -3 -25 -17 0 -13 113 6 163 4 9 3 17 -3
17 -14 0 -36 -115 -28 -152 5 -24 4 -30 -5 -21 -12 12 -8 124 6 156 4 9 3 17
-2 17 -15 0 -37 -104 -30 -142 6 -27 5 -30 -4 -14 -11 19 -7 112 7 152 5 15 4
16 -6 7 -21 -19 -25 -136 -7 -173 l16 -32 -27 7 c-69 17 -92 68 -76 173 8 56
18 78 52 115 26 27 46 31 90 18z m-1025 -90 c71 -25 128 -64 193 -133 128
-136 172 -341 93 -430 l-21 -23 16 27 c71 121 19 306 -124 442 -88 83 -163
119 -250 120 -52 1 -73 -4 -104 -23 -22 -14 -36 -19 -32 -12 14 22 89 51 132
51 22 0 66 -9 97 -19z m35 -46 c142 -71 253 -229 260 -370 6 -112 0 -120 -213
-296 -215 -176 -222 -181 -205 -148 8 14 11 49 8 98 -7 104 -50 192 -138 282
-86 87 -160 124 -252 124 -38 0 -68 1 -68 2 0 1 37 32 83 69 45 38 84 71 87
74 26 27 205 174 227 185 51 27 132 19 211 -20z m735 -1 c15 -3 27 -10 27 -16
0 -5 -8 -7 -17 -4 -10 3 -30 8 -45 12 -16 3 -28 10 -28 16 0 5 8 7 18 4 9 -3
29 -8 45 -12z m-1155 -356 c74 -35 158 -115 202 -191 39 -69 39 -77 -7 -71
-29 3 -33 2 -18 -5 11 -5 30 -10 42 -10 22 -1 27 -10 38 -74 8 -49 -17 -136
-47 -164 -28 -27 -89 -53 -121 -53 -21 0 -25 6 -31 41 -7 46 -2 59 24 59 10 0
31 13 46 29 l28 30 39 -20 c21 -11 42 -18 45 -15 3 4 -13 14 -36 23 -42 16
-42 16 -42 69 0 69 -28 132 -87 195 -61 66 -113 92 -181 93 -48 1 -57 -2 -83
-32 l-29 -32 -40 20 c-45 23 -45 22 -26 58 48 93 155 112 284 50z m-22 -98
c135 -66 212 -254 135 -331 -53 -53 -150 -31 -232 53 -123 126 -116 298 13
298 23 0 61 -9 84 -20z m-236 -24 c34 -17 36 -20 36 -70 1 -61 43 -154 89
-198 26 -23 30 -35 27 -63 -2 -19 -7 -35 -11 -35 -24 0 -161 177 -161 208 0 7
13 10 33 7 30 -4 30 -4 -6 7 -30 9 -39 18 -47 47 -12 42 -13 124 -2 119 4 -2
23 -12 42 -22z m196 -320 c11 -8 38 -19 61 -25 37 -10 41 -14 47 -52 4 -23 5
-43 4 -45 -6 -5 -105 32 -132 49 -20 14 -24 21 -17 40 4 12 6 28 4 35 -6 16 8
15 33 -2z"/>
<path d="M2675 1720 c-10 -11 -14 -20 -9 -20 5 0 15 9 22 20 7 11 11 20 9 20
-2 0 -12 -9 -22 -20z"/>
<path d="M2699 1708 c-12 -23 -12 -23 10 -4 23 21 26 26 11 26 -5 0 -15 -10
-21 -22z"/>
<path d="M2773 1658 c-42 -47 -56 -144 -27 -186 8 -12 21 -22 29 -22 15 0 65
56 65 73 0 7 -7 3 -15 -8 -8 -11 -22 -28 -31 -37 -38 -39 -60 32 -29 92 16 32
34 37 66 20 17 -10 19 -7 19 28 0 62 -38 82 -77 40z m47 -24 c0 -9 -5 -14 -12
-12 -18 6 -21 28 -4 28 9 0 16 -7 16 -16z"/>
<path d="M2711 1593 c-15 -52 -14 -87 4 -130 21 -50 28 -37 9 16 -12 35 -13
54 -4 94 13 60 6 75 -9 20z"/>
<path d="M1115 1273 c30 -7 38 -19 13 -20 -11 -1 -26 -7 -32 -13 -8 -8 -4 -10
14 -5 14 3 39 1 55 -6 69 -26 81 -28 82 -8 2 16 -1 17 -18 8 -12 -6 -23 -8
-27 -5 -3 3 -1 6 5 6 6 0 13 7 17 15 4 13 2 13 -14 5 -25 -13 -43 -9 -52 13
-5 11 -17 17 -35 16 -21 -1 -23 -3 -8 -6z"/>
<path d="M1412 940 c-16 -26 -15 -35 2 -21 11 10 15 8 18 -6 2 -10 6 -13 10
-8 3 6 1 20 -6 32 -11 22 -12 22 -24 3z"/>
<path d="M1089 1159 c-28 -10 -49 -46 -49 -83 0 -39 50 -124 97 -166 159 -139
271 11 127 170 -62 68 -125 96 -175 79z m113 -38 c49 -31 77 -65 102 -125 20
-48 20 -75 0 -104 -41 -59 -170 4 -225 110 -25 48 -26 123 -1 137 31 18 77 12
124 -18z"/>
<path d="M1150 1032 c0 -5 7 -15 15 -22 8 -7 15 -9 15 -6 0 4 -7 14 -15 22 -8
9 -15 11 -15 6z"/>
<path d="M1209 1023 c-13 -16 -12 -17 4 -4 9 7 17 15 17 17 0 8 -8 3 -21 -13z"/>
<path d="M937 1093 c11 -32 15 -34 29 -16 18 24 18 38 -1 23 -10 -9 -15 -9
-15 -1 0 6 -4 11 -10 11 -5 0 -7 -8 -3 -17z"/>
<path d="M1172 797 c-14 -17 2 -42 22 -34 20 8 20 21 2 36 -10 8 -16 8 -24 -2z
m23 -17 c3 -5 1 -10 -4 -10 -6 0 -11 5 -11 10 0 6 2 10 4 10 3 0 8 -4 11 -10z"/>
<path d="M1718 2050 c34 -5 63 -16 78 -31 13 -12 24 -18 24 -11 0 26 -52 52
-104 51 l-51 -1 53 -8z"/>
<path d="M1830 2000 c0 -4 10 -10 23 -14 13 -3 36 -17 51 -31 15 -14 34 -25
42 -25 22 0 21 0 65 -15 48 -17 49 -17 49 -7 0 4 -28 14 -62 22 -34 7 -70 22
-82 34 -22 22 -86 49 -86 36z"/>
<path d="M1662 1905 c0 -16 2 -22 5 -12 2 9 2 23 0 30 -3 6 -5 -1 -5 -18z"/>
<path d="M2100 1896 c42 -17 60 -19 60 -7 0 6 -8 9 -17 9 -10 0 -31 2 -48 6
-27 6 -27 5 5 -8z"/>
<path d="M2045 1880 c3 -5 11 -10 16 -10 6 0 7 5 4 10 -3 6 -11 10 -16 10 -6
0 -7 -4 -4 -10z"/>
<path d="M2199 1875 c18 -8 38 -15 45 -15 6 1 -4 7 -23 15 -18 8 -38 15 -45
15 -6 -1 4 -7 23 -15z"/>
</g>
</svg>
